<svg width="48" height="40" viewBox="0 0 48 40" fill="none" xmlns="http://www.w3.org/2000/svg">
<path d="M48 28.4119C48 34.316 43.3059 39.1005 37.5136 39.1005H27.8724C27.5957 35.4024 24.5644 32.4889 20.8648 32.4889C17.1654 32.4889 14.1341 35.4024 13.8573 39.1005H10.2876C6.72221 35.5523 3.91785 31.213 2.14274 26.3622C2.03891 26.0802 1.9395 25.7959 1.84433 25.5094C0.64856 21.9635 0 18.1574 0 14.1971C0 12.1123 0.1794 10.0715 0.525311 8.08808C0.812952 6.41978 1.21943 4.79334 1.73397 3.21759C1.73397 3.21099 1.73626 3.20658 1.73838 3.19997C2.06275 2.20824 2.42808 1.23855 2.83244 0.288703C2.8757 0.191734 2.91667 0.0969686 2.95993 0C2.96434 0.00220384 2.96646 0.00661151 2.96858 0.00881534C4.1232 1.23415 5.10479 2.62918 5.87465 4.15424C6.69626 3.80823 7.59573 3.6187 8.54059 3.6187C9.55236 3.6187 10.5145 3.83688 11.3838 4.22915C12.0173 2.96416 12.7936 1.78951 13.693 0.722858C15.0271 3.222 15.7837 6.08479 15.7837 9.12829C15.7837 10.3206 15.667 11.4864 15.4443 12.6125C20.0065 15.277 23.907 18.9816 26.8346 23.4091C28.2647 25.5736 29.8716 27.6759 30.4929 30.2322C31.2865 33.43 34.1297 35.7947 37.5136 35.7947C41.5135 35.7947 44.7568 32.4889 44.7568 28.4119C44.7568 25.6967 43.319 23.3232 41.1741 22.0405C40.0995 21.397 38.8497 21.029 37.5136 21.029C36.3547 21.029 35.2606 21.3066 34.2898 21.7981L34.2875 21.8003C34.1254 21.9392 33.9395 22.0472 33.7318 22.1156H33.7297C33.5698 22.1685 33.399 22.1971 33.2217 22.1971C32.3092 22.1971 31.5676 21.4411 31.5676 20.511C31.5676 19.9955 31.7968 19.5305 32.1557 19.2218C32.1579 19.2197 32.16 19.2197 32.16 19.2197C32.3223 19.0807 32.5103 18.9728 32.7157 18.9067C32.7157 18.9067 32.7157 18.9046 32.7178 18.9046C34.1535 18.1486 35.7838 17.7232 37.5136 17.7232C39.4098 17.7232 41.1891 18.2367 42.7243 19.1315C45.8769 20.9761 48 24.4406 48 28.4119Z" fill="url(#paint0_linear_146_128526)"/>
<path d="M15.7837 9.12829C15.7837 10.3206 15.667 11.4864 15.4443 12.6125C14.8519 15.6318 13.5006 18.3712 11.6043 20.619C10.88 21.4785 10.0734 22.2676 9.19991 22.9705C7.16754 24.6058 4.76541 25.7892 2.14274 26.3622C2.03891 26.0802 1.9395 25.7959 1.84433 25.5094C0.64856 21.9635 0 18.1574 0 14.1971C0 12.1123 0.1794 10.0715 0.525311 8.08808C0.812951 6.41978 1.21943 4.79334 1.73397 3.21759C1.73397 3.21099 1.73626 3.20658 1.73838 3.19997C2.01949 2.18841 2.38694 1.21652 2.83244 0.288703C2.8757 0.191734 2.91667 0.0969686 2.95993 0C2.96434 0.00220384 2.96646 0.00661151 2.96858 0.00881534C4.1232 1.23415 5.10479 2.62918 5.87465 4.15424C6.69626 3.80823 7.59573 3.6187 8.54058 3.6187C9.55236 3.6187 10.5145 3.83688 11.3838 4.22915C12.0173 2.96416 12.7936 1.78951 13.693 0.722858C15.0271 3.222 15.7837 6.08479 15.7837 9.12829Z" fill="url(#paint1_linear_146_128526)"/>
<path d="M15.5612 10.7816C15.5612 11.3943 15.4855 11.9915 15.3428 12.5579C14.7179 15.057 12.8022 17.0317 10.3611 17.6994C9.77945 17.8581 9.1655 17.9441 8.53406 17.9441C7.97414 17.9441 7.42711 17.878 6.90604 17.7501C3.8098 17.003 1.50708 14.1667 1.50708 10.7816C1.50708 9.87361 1.67359 9.00531 1.97624 8.20752C2.66824 6.37172 4.08437 4.89956 5.86813 4.15466C6.68974 3.80867 7.58921 3.61914 8.53406 3.61914C9.54602 3.61914 10.5082 3.83732 11.3775 4.22959C13.8423 5.34252 15.5612 7.85711 15.5612 10.7816Z" fill="url(#paint2_linear_146_128526)"/>
<path d="M37.59 32.2482C39.6923 32.2482 41.3966 30.5113 41.3966 28.3687C41.3966 26.2262 39.6923 24.4893 37.59 24.4893C35.4877 24.4893 33.7834 26.2262 33.7834 28.3687C33.7834 30.5113 35.4877 32.2482 37.59 32.2482Z" fill="url(#paint3_linear_146_128526)"/>
<defs>
<linearGradient id="paint0_linear_146_128526" x1="24.0001" y1="13.1588" x2="24.0001" y2="39.1005" gradientUnits="userSpaceOnUse">
<stop stop-color="#D45A5A"/>
<stop offset="1" stop-color="#AA3737"/>
</linearGradient>
<linearGradient id="paint1_linear_146_128526" x1="7.89185" y1="8.87192" x2="7.89185" y2="26.3622" gradientUnits="userSpaceOnUse">
<stop stop-color="#D45A5A"/>
<stop offset="1" stop-color="#AA3737"/>
</linearGradient>
<linearGradient id="paint2_linear_146_128526" x1="8.53406" y1="8.44003" x2="8.53406" y2="17.9441" gradientUnits="userSpaceOnUse">
<stop stop-color="#D45A5A"/>
<stop offset="1" stop-color="#AA3737"/>
</linearGradient>
<linearGradient id="paint3_linear_146_128526" x1="37.59" y1="27.1004" x2="37.59" y2="32.2481" gradientUnits="userSpaceOnUse">
<stop stop-color="#D45A5A"/>
<stop offset="1" stop-color="#AA3737"/>
</linearGradient>
</defs>
</svg>
